#Comment line ignore any data following # character 
#Hierarchical Translation and Rotation (.htr) file 
[Header]	
#Header keywords are followed by a single value 
FileType HTR		#Single word string
DataType HTRS		#Translation followed by rotation and scale data
FileVersion 1		#integer
NumSegments 84		#integer
NumFrames 2		#integer
DataFrameRate 30		#integer, data frame rate in this file
EulerRotationOrder ZYX
CalibrationUnits mm
RotationUnits Degrees
GlobalAxisofGravity Y
BoneLengthAxis Y
ScaleFactor 1.00
[SegmentNames&Hierarchy]
#CHILD	PARENT
MASTER GLOBAL
root MASTER
chest root
L_mid_tent01 root
R_mid_tent01 root
spine01 root
Bip01_Neck chest
L_humerus chest
R_humerus chest
weapon_bone chest
Bip01_Head Bip01_Neck
eye_left_bone Bip01_Head
eye_right_bone Bip01_Head
L_forearm L_humerus
L_front_hand L_forearm
L_weapon_bone L_forearm
L_front_hand01_01 L_front_hand
L_front_hand02_01 L_front_hand
L_front_hand03_01 L_front_hand
L_front_hand01_02 L_front_hand01_01
L_front_hand02_02 L_front_hand02_01
L_front_hand03_02 L_front_hand03_01
R_forearm R_humerus
R_front_hand R_forearm
R_weapon_bone R_forearm
R_front_hand01_01 R_front_hand
R_front_hand02_01 R_front_hand
R_front_hand03_01 R_front_hand
R_front_hand01_02 R_front_hand01_01
R_front_hand02_02 R_front_hand02_01
R_front_hand03_02 R_front_hand03_01
null_rope01_connect L_mid_tent01
Rope1_Seg01 null_rope01_connect
Rope1_Seg02 Rope1_Seg01
Rope1_Seg03 Rope1_Seg02
Rope1_Seg04 Rope1_Seg03
Rope1_Seg05 Rope1_Seg04
Rope1_Seg06 Rope1_Seg05
Rope1_Seg07 Rope1_Seg06
Rope1_Seg09 Rope1_Seg07
L_mid_hand01 Rope1_Seg09
L_mid_hand02 Rope1_Seg09
L_mid_hand03 Rope1_Seg09
null_rope02_connect R_mid_tent01
Rope2_Seg01 null_rope02_connect
Rope2_Seg02 Rope2_Seg01
Rope2_Seg03 Rope2_Seg02
Rope2_Seg04 Rope2_Seg03
Rope2_Seg05 Rope2_Seg04
Rope2_Seg06 Rope2_Seg05
Rope2_Seg07 Rope2_Seg06
Rope2_Seg09 Rope2_Seg07
R_mid_hand01 Rope2_Seg09
R_mid_hand02 Rope2_Seg09
R_mid_hand03 Rope2_Seg09
spine02 spine01
spine03 spine02
pelvis spine03
null_rope03_connect pelvis
null_rope04_connect pelvis
Rope3_Seg01 null_rope03_connect
Rope3_Seg02 Rope3_Seg01
Rope3_Seg03 Rope3_Seg02
Rope3_Seg04 Rope3_Seg03
Rope3_Seg05 Rope3_Seg04
Rope3_Seg06 Rope3_Seg05
Rope3_Seg07 Rope3_Seg06
Rope3_Seg08 Rope3_Seg07
Rope3_Seg09 Rope3_Seg08
R_rear_hand01 Rope3_Seg09
R_rear_hand02 Rope3_Seg09
R_rear_hand03 Rope3_Seg09
Rope4_Seg01 null_rope04_connect
Rope4_Seg02 Rope4_Seg01
Rope4_Seg03 Rope4_Seg02
Rope4_Seg04 Rope4_Seg03
Rope4_Seg05 Rope4_Seg04
Rope4_Seg06 Rope4_Seg05
Rope4_Seg07 Rope4_Seg06
Rope4_Seg08 Rope4_Seg07
Rope4_Seg09 Rope4_Seg08
L_rear_hand01 Rope4_Seg09
L_rear_hand02 Rope4_Seg09
L_rear_hand03 Rope4_Seg09
[BasePosition]
#SegmentName Tx, Ty, Tz, Rx, Ry, Rz, BoneLength
MASTER 0.000000 0.000000 0.000000 -90.000000 0.000000 0.000000 10.000000 
root 0.000000 0.000000 0.000000 0.000000 0.000000 0.000000 10.000000 
chest 0.000000 0.000000 0.000000 0.000000 0.000000 0.000000 10.000000 
L_mid_tent01 0.000000 0.000000 0.000000 0.000000 0.000000 0.000000 10.000000 
R_mid_tent01 0.000000 0.000000 0.000000 0.000000 0.000000 0.000000 10.000000 
spine01 0.000000 0.000000 0.000000 0.000000 0.000000 0.000000 10.000000 
Bip01_Neck 0.000000 0.000000 0.000000 0.000000 0.000000 0.000000 10.000000 
L_humerus 0.000000 0.000000 0.000000 0.000000 0.000000 0.000000 10.000000 
R_humerus 0.000000 0.000000 0.000000 0.000000 0.000000 0.000000 10.000000 
weapon_bone 0.000000 0.000000 0.000000 0.000000 0.000000 0.000000 10.000000 
Bip01_Head 0.000000 0.000000 0.000000 0.000000 0.000000 0.000000 10.000000 
eye_left_bone 0.000000 0.000000 0.000000 0.000000 0.000000 0.000000 10.000000 
eye_right_bone 0.000000 0.000000 0.000000 0.000000 0.000000 0.000000 10.000000 
L_forearm 0.000000 0.000000 0.000000 0.000000 0.000000 0.000000 10.000000 
L_front_hand 0.000000 0.000000 0.000000 0.000000 0.000000 0.000000 10.000000 
L_weapon_bone 0.000000 0.000000 0.000000 0.000000 0.000000 0.000000 10.000000 
L_front_hand01_01 0.000000 0.000000 0.000000 0.000000 0.000000 0.000000 10.000000 
L_front_hand02_01 0.000000 0.000000 0.000000 0.000000 0.000000 0.000000 10.000000 
L_front_hand03_01 0.000000 0.000000 0.000000 0.000000 0.000000 0.000000 10.000000 
L_front_hand01_02 0.000000 0.000000 0.000000 0.000000 0.000000 0.000000 10.000000 
L_front_hand02_02 0.000000 0.000000 0.000000 0.000000 0.000000 0.000000 10.000000 
L_front_hand03_02 0.000000 0.000000 0.000000 0.000000 0.000000 0.000000 10.000000 
R_forearm 0.000000 0.000000 0.000000 0.000000 0.000000 0.000000 10.000000 
R_front_hand 0.000000 0.000000 0.000000 0.000000 0.000000 0.000000 10.000000 
R_weapon_bone 0.000000 0.000000 0.000000 0.000000 0.000000 0.000000 10.000000 
R_front_hand01_01 0.000000 0.000000 0.000000 0.000000 0.000000 0.000000 10.000000 
R_front_hand02_01 0.000000 0.000000 0.000000 0.000000 0.000000 0.000000 10.000000 
R_front_hand03_01 0.000000 0.000000 0.000000 0.000000 0.000000 0.000000 10.000000 
R_front_hand01_02 0.000000 0.000000 0.000000 0.000000 0.000000 0.000000 10.000000 
R_front_hand02_02 0.000000 0.000000 0.000000 0.000000 0.000000 0.000000 10.000000 
R_front_hand03_02 0.000000 0.000000 0.000000 0.000000 0.000000 0.000000 10.000000 
null_rope01_connect 0.000000 0.000000 0.000000 0.000000 0.000000 0.000000 10.000000 
Rope1_Seg01 0.000000 0.000000 0.000000 0.000000 0.000000 0.000000 10.000000 
Rope1_Seg02 0.000000 0.000000 0.000000 0.000000 0.000000 0.000000 10.000000 
Rope1_Seg03 0.000000 0.000000 0.000000 0.000000 0.000000 0.000000 10.000000 
Rope1_Seg04 0.000000 0.000000 0.000000 0.000000 0.000000 0.000000 10.000000 
Rope1_Seg05 0.000000 0.000000 0.000000 0.000000 0.000000 0.000000 10.000000 
Rope1_Seg06 0.000000 0.000000 0.000000 0.000000 0.000000 0.000000 10.000000 
Rope1_Seg07 0.000000 0.000000 0.000000 0.000000 0.000000 0.000000 10.000000 
Rope1_Seg09 0.000000 0.000000 0.000000 0.000000 0.000000 0.000000 10.000000 
L_mid_hand01 0.000000 0.000000 0.000000 0.000000 0.000000 0.000000 10.000000 
L_mid_hand02 0.000000 0.000000 0.000000 0.000000 0.000000 0.000000 10.000000 
L_mid_hand03 0.000000 0.000000 0.000000 0.000000 0.000000 0.000000 10.000000 
null_rope02_connect 0.000000 0.000000 0.000000 0.000000 0.000000 0.000000 10.000000 
Rope2_Seg01 0.000000 0.000000 0.000000 0.000000 0.000000 0.000000 10.000000 
Rope2_Seg02 0.000000 0.000000 0.000000 0.000000 0.000000 0.000000 10.000000 
Rope2_Seg03 0.000000 0.000000 0.000000 0.000000 0.000000 0.000000 10.000000 
Rope2_Seg04 0.000000 0.000000 0.000000 0.000000 0.000000 0.000000 10.000000 
Rope2_Seg05 0.000000 0.000000 0.000000 0.000000 0.000000 0.000000 10.000000 
Rope2_Seg06 0.000000 0.000000 0.000000 0.000000 0.000000 0.000000 10.000000 
Rope2_Seg07 0.000000 0.000000 0.000000 0.000000 0.000000 0.000000 10.000000 
Rope2_Seg09 0.000000 0.000000 0.000000 0.000000 0.000000 0.000000 10.000000 
R_mid_hand01 0.000000 0.000000 0.000000 0.000000 0.000000 0.000000 10.000000 
R_mid_hand02 0.000000 0.000000 0.000000 0.000000 0.000000 0.000000 10.000000 
R_mid_hand03 0.000000 0.000000 0.000000 0.000000 0.000000 0.000000 10.000000 
spine02 0.000000 0.000000 0.000000 0.000000 0.000000 0.000000 10.000000 
spine03 0.000000 0.000000 0.000000 0.000000 0.000000 0.000000 10.000000 
pelvis 0.000000 0.000000 0.000000 0.000000 0.000000 0.000000 10.000000 
null_rope03_connect 0.000000 0.000000 0.000000 0.000000 0.000000 0.000000 10.000000 
null_rope04_connect 0.000000 0.000000 0.000000 0.000000 0.000000 0.000000 10.000000 
Rope3_Seg01 0.000000 0.000000 0.000000 0.000000 0.000000 0.000000 10.000000 
Rope3_Seg02 0.000000 0.000000 0.000000 0.000000 0.000000 0.000000 10.000000 
Rope3_Seg03 0.000000 0.000000 0.000000 0.000000 0.000000 0.000000 10.000000 
Rope3_Seg04 0.000000 0.000000 0.000000 0.000000 0.000000 0.000000 10.000000 
Rope3_Seg05 0.000000 0.000000 0.000000 0.000000 0.000000 0.000000 10.000000 
Rope3_Seg06 0.000000 0.000000 0.000000 0.000000 0.000000 0.000000 10.000000 
Rope3_Seg07 0.000000 0.000000 0.000000 0.000000 0.000000 0.000000 10.000000 
Rope3_Seg08 0.000000 0.000000 0.000000 0.000000 0.000000 0.000000 10.000000 
Rope3_Seg09 0.000000 0.000000 0.000000 0.000000 0.000000 0.000000 10.000000 
R_rear_hand01 0.000000 0.000000 0.000000 0.000000 0.000000 0.000000 10.000000 
R_rear_hand02 0.000000 0.000000 0.000000 0.000000 0.000000 0.000000 10.000000 
R_rear_hand03 0.000000 0.000000 0.000000 0.000000 0.000000 0.000000 10.000000 
Rope4_Seg01 0.000000 0.000000 0.000000 0.000000 0.000000 0.000000 10.000000 
Rope4_Seg02 0.000000 0.000000 0.000000 0.000000 0.000000 0.000000 10.000000 
Rope4_Seg03 0.000000 0.000000 0.000000 0.000000 0.000000 0.000000 10.000000 
Rope4_Seg04 0.000000 0.000000 0.000000 0.000000 0.000000 0.000000 10.000000 
Rope4_Seg05 0.000000 0.000000 0.000000 0.000000 0.000000 0.000000 10.000000 
Rope4_Seg06 0.000000 0.000000 0.000000 0.000000 0.000000 0.000000 10.000000 
Rope4_Seg07 0.000000 0.000000 0.000000 0.000000 0.000000 0.000000 10.000000 
Rope4_Seg08 0.000000 0.000000 0.000000 0.000000 0.000000 0.000000 10.000000 
Rope4_Seg09 0.000000 0.000000 0.000000 0.000000 0.000000 0.000000 10.000000 
L_rear_hand01 0.000000 0.000000 0.000000 0.000000 0.000000 0.000000 10.000000 
L_rear_hand02 0.000000 0.000000 0.000000 0.000000 0.000000 0.000000 10.000000 
L_rear_hand03 0.000000 0.000000 0.000000 0.000000 0.000000 0.000000 10.000000 
#Beginning of Data. Separated by tabs
#Fr	Tx	Ty	Tz	Rx	Ry	Rz	SF
[MASTER]
30 2475.000977 4664.104004 662.461670 0.001660 0.001660 0.001660 5321.499023
31 2478.459473 4690.357422 662.461670 0.001660 0.001660 0.001660 5346.126465
[root]
30 48.148403 -85.671997 1004.091614 -113.217247 -14.867654 -76.987793 1008.889465
31 22.612097 -85.671997 1004.091614 -113.217247 -14.867654 -76.987793 1007.993530
[chest]
30 -84.512650 -34.090519 0.000000 -39.162979 -17.868515 178.052216 91.129311
31 -84.512650 -34.090519 0.000000 -40.310585 -11.740223 175.032883 91.129311
[L_mid_tent01]
30 27.298767 22.179258 -249.918701 -11.284420 11.426413 -46.951450 252.381653
31 27.298756 22.179258 -249.918701 -8.032280 9.210794 -37.021027 252.381653
[R_mid_tent01]
30 23.228794 24.509907 226.238495 163.314392 -13.046785 77.092728 228.744751
31 23.228794 24.509907 226.238495 163.210266 -19.021774 76.314163 228.744751
[spine01]
30 -0.361383 -0.195265 0.000000 0.001952 0.001303 22.556879 0.410763
31 -0.361383 -0.195265 0.000000 0.001952 0.001304 22.517004 0.410763
[Bip01_Neck]
30 165.484543 71.581718 0.000119 176.643677 -1.657967 43.431911 180.302734
31 165.484543 71.581718 0.000119 176.643677 -1.657967 43.431911 180.302734
[L_humerus]
30 -13.983130 -135.272980 -120.471481 172.083572 0.708358 -94.955658 181.680161
31 -13.983130 -135.272980 -120.471481 168.533478 8.703102 -99.954391 181.680161
[R_humerus]
30 -13.983309 -135.273102 125.287651 -177.014343 2.678900 -85.399712 184.909012
31 -13.983309 -135.273102 125.287651 -176.931625 -4.780204 -85.885658 184.909012
[weapon_bone]
30 235.964890 -300.705902 0.000000 0.000000 -89.951546 -128.212341 382.234833
31 235.964890 -300.705902 0.000000 0.000000 -89.951546 -128.212341 382.234833
[Bip01_Head]
30 213.395462 185.852036 10.015149 20.453178 6.149214 -43.834606 283.158783
31 213.401657 185.834915 10.235682 25.772793 6.151496 -43.833462 283.160126
[eye_left_bone]
30 -24.626970 125.451866 -64.772606 0.000000 -90.000000 -99.840431 143.318359
31 -24.626970 125.451866 -64.772606 0.000000 -90.000000 -99.840431 143.318359
[eye_right_bone]
30 -24.626970 125.451866 64.327362 0.000000 -89.965736 80.156380 143.117676
31 -24.626970 125.451866 64.327362 0.000000 -89.965736 80.156380 143.117676
[L_forearm]
30 322.776093 0.000000 -0.000119 0.000417 -0.002310 -110.476891 322.776093
31 322.776093 0.000000 -0.000119 0.000415 -0.002310 -110.390747 322.776093
[L_front_hand]
30 241.149185 -0.042021 -3.300071 -178.667953 -1.835447 -27.422342 241.171753
31 241.149185 -0.042021 -3.300071 -178.667953 -1.835447 -27.422350 241.171753
[L_weapon_bone]
30 156.183838 0.000000 0.000000 0.000014 0.000007 0.000001 156.183838
31 156.183838 0.000000 0.000000 0.000014 0.000007 0.000001 156.183838
[L_front_hand01_01]
30 86.095154 20.947098 -0.655860 -0.366594 -0.477154 75.385574 88.609184
31 86.095154 20.947098 -0.655860 -0.366594 -0.477154 75.385574 88.609184
[L_front_hand02_01]
30 86.935165 -11.437475 24.513514 154.399796 -59.883835 -61.369587 91.046425
31 86.935165 -11.437475 24.513514 154.399796 -59.883835 -61.369587 91.046425
[L_front_hand03_01]
30 86.637497 -14.123976 -20.424902 -153.913849 58.118122 -62.702866 90.126129
31 86.637497 -14.123976 -20.424902 -153.913849 58.118122 -62.702866 90.126129
[L_front_hand01_02]
30 71.020905 -0.000179 0.000030 0.000334 -0.002323 -106.370071 71.020905
31 71.020905 -0.000179 0.000030 0.000334 -0.002323 -106.370773 71.020905
[L_front_hand02_02]
30 71.020927 -0.000119 0.000060 0.000334 -0.002323 -106.370071 71.020927
31 71.020927 -0.000119 0.000060 0.000334 -0.002323 -106.370773 71.020927
[L_front_hand03_02]
30 71.020905 -0.000060 0.000060 0.000334 -0.002323 -106.370071 71.020905
31 71.020905 -0.000060 0.000060 0.000334 -0.002323 -106.370773 71.020905
[R_forearm]
30 322.776428 -0.000060 0.000030 0.201489 0.067035 -109.128723 322.776428
31 322.776428 -0.000060 0.000030 0.201540 0.066882 -109.041832 322.776428
[R_front_hand]
30 238.847015 -0.006795 2.210259 -2.635298 -10.645461 -26.312506 238.857239
31 238.847015 -0.006795 2.210259 -2.635298 -10.645461 -26.312506 238.857239
[R_weapon_bone]
30 155.664093 0.002503 -0.000030 0.003487 0.001180 -90.988930 155.664078
31 155.664093 0.002503 -0.000030 0.003487 0.001180 -90.988930 155.664078
[R_front_hand01_01]
30 87.624611 14.231146 22.918642 -154.633484 -59.950619 61.746037 91.683487
31 87.624611 14.231146 22.918642 -154.633499 -59.950619 61.746044 91.683487
[R_front_hand02_01]
30 89.356956 14.367283 -19.491137 154.602661 58.302849 63.744389 92.579636
31 89.356956 14.367283 -19.491137 154.602661 58.302849 63.744389 92.579636
[R_front_hand03_01]
30 87.286232 -22.307278 -0.143439 0.162155 -0.423168 -75.767921 90.091743
31 87.286232 -22.307278 -0.143439 0.162155 -0.423168 -75.767921 90.091743
[R_front_hand01_02]
30 71.020905 0.000060 0.000119 0.002323 -0.000334 106.381714 71.020905
31 71.020905 0.000060 0.000119 0.002323 -0.000334 106.381714 71.020905
[R_front_hand02_02]
30 71.020844 -0.000030 -0.000119 0.002323 -0.000334 106.381714 71.020836
31 71.020844 -0.000030 -0.000119 0.002323 -0.000334 106.381714 71.020836
[R_front_hand03_02]
30 71.020905 0.000000 0.000030 0.002323 -0.000334 106.381714 71.020905
31 71.020905 0.000000 0.000030 0.002323 -0.000334 106.381714 71.020905
[null_rope01_connect]
30 328.732483 0.000000 -0.000238 -152.076187 -70.969955 -51.981834 328.732483
31 328.732483 0.000000 -0.000238 -163.644165 -69.715714 -50.350079 328.732483
[Rope1_Seg01]
30 0.000000 0.000000 0.000000 90.112534 -72.015152 13.993609 0.000000
31 0.000000 0.000000 0.000000 86.056343 -49.447296 18.012039 0.000000
[Rope1_Seg02]
30 139.999863 -0.000179 0.000000 -0.670798 4.042464 -9.048160 139.999863
31 139.999863 -0.000179 0.000000 -0.375430 4.328603 -2.249755 139.999863
[Rope1_Seg03]
30 139.999924 0.000060 -0.000060 -0.271815 5.360427 -11.860410 139.999924
31 139.999924 0.000060 -0.000060 -0.747630 5.610389 -2.857777 139.999924
[Rope1_Seg04]
30 139.999924 -0.000060 -0.000119 0.352029 8.017241 -15.109338 139.999924
31 139.999924 -0.000060 -0.000119 -3.422958 11.354990 0.302636 139.999924
[Rope1_Seg05]
30 139.999832 0.000119 -0.000060 2.974742 5.094251 -13.222690 139.999832
31 139.999832 0.000119 -0.000060 0.890950 5.527618 -9.552836 139.999832
[Rope1_Seg06]
30 139.999954 0.000119 -0.000060 5.314933 -1.199228 -7.034666 139.999954
31 139.999954 0.000119 -0.000060 11.472883 -5.251788 -13.756272 139.999954
[Rope1_Seg07]
30 139.999985 0.000060 0.000000 4.496062 -1.728592 -4.502549 139.999985
31 139.999985 0.000060 0.000000 4.897980 -2.167793 -5.355921 139.999985
[Rope1_Seg09]
30 121.602913 0.000119 -0.000089 -89.793175 -1.359789 0.847147 121.602913
31 121.602913 0.000119 -0.000089 -89.793175 -1.359789 0.847147 121.602913
[L_mid_hand01]
30 103.859421 1.038730 8.195221 130.544357 -67.584518 -38.866943 104.187431
31 103.859421 1.038730 8.195221 130.544388 -67.584534 -38.866955 104.187431
[L_mid_hand02]
30 105.572853 -4.139662 -10.864139 -168.923172 43.409317 -73.498894 106.211075
31 105.572853 -4.139662 -10.864139 -168.923172 43.409309 -73.498894 106.211075
[L_mid_hand03]
30 104.641464 17.579376 -3.913581 -6.012626 17.808172 74.893661 106.179977
31 104.641464 17.579376 -3.913581 -6.012625 17.808174 74.893669 106.179977
[null_rope02_connect]
30 328.732849 0.000179 -0.000119 -55.884197 56.506500 96.210823 328.732849
31 328.732849 0.000179 -0.000119 -65.853851 56.264606 85.461700 328.732849
[Rope2_Seg01]
30 0.000062 0.000056 0.000000 -143.533813 54.258583 144.973495 0.000084
31 0.000063 0.000053 0.000000 -153.529709 57.693699 138.912750 0.000082
[Rope2_Seg02]
30 139.999741 -0.000060 -0.000119 -13.685228 3.503912 10.156050 139.999756
31 139.999741 -0.000060 -0.000119 -12.140447 4.045698 9.517120 139.999756
[Rope2_Seg03]
30 140.000107 0.000030 0.000000 -17.895983 1.068788 19.237347 140.000107
31 140.000107 0.000030 0.000000 -14.289758 2.395397 14.333575 140.000107
[Rope2_Seg04]
30 139.999802 0.000000 -0.000060 -13.875184 -7.241482 26.675121 139.999802
31 139.999802 0.000000 -0.000060 -13.743204 -1.374597 20.495043 139.999802
[Rope2_Seg05]
30 139.999985 -0.000060 0.000119 -6.280961 -3.087297 25.163185 139.999985
31 139.999985 -0.000060 0.000119 -11.874843 -7.173127 32.634933 139.999985
[Rope2_Seg06]
30 139.999893 -0.000030 -0.000119 -1.117534 -3.181716 17.111456 139.999893
31 139.999893 -0.000030 -0.000119 -1.742248 -7.312848 17.426907 139.999893
[Rope2_Seg07]
30 139.999893 0.000060 -0.000060 0.487205 -2.369330 9.138017 139.999893
31 139.999893 0.000060 -0.000060 0.514468 -3.640588 8.201474 139.999893
[Rope2_Seg09]
30 121.338966 0.000089 -0.000060 33.793236 -1.359788 -0.847141 121.338966
31 121.338966 0.000089 -0.000060 33.793236 -1.359788 -0.847141 121.338966
[R_mid_hand01]
30 104.680779 11.144459 -10.335981 -16.212059 45.237247 70.462852 105.778534
31 104.680779 11.144459 -10.335981 -16.212059 45.237240 70.462852 105.778534
[R_mid_hand02]
30 104.070427 2.443552 8.231699 49.067371 -67.749794 39.286461 104.424065
31 104.070427 2.443552 8.231699 49.067371 -67.749794 39.286461 104.424065
[R_mid_hand03]
30 106.028137 -11.221827 -5.996406 -177.101105 15.551026 -76.585571 106.788818
31 106.028137 -11.221827 -5.996406 -177.101105 15.551026 -76.585571 106.788818
[spine02]
30 129.756927 0.001550 0.000119 0.463761 -4.033357 -14.442470 129.756927
31 129.756927 0.001550 0.000119 0.455104 -4.034404 -14.316079 129.756927
[spine03]
30 78.614014 0.081738 -4.898996 1.958736 3.801343 17.427794 78.766556
31 78.614014 0.081738 -4.898995 1.953807 3.803658 17.350088 78.766556
[pelvis]
30 169.435242 0.051022 0.000000 -57.102165 0.331301 -9.766882 169.435257
31 169.435242 0.051022 0.000000 -56.144161 0.875286 -8.717332 169.435257
[null_rope03_connect]
30 -1.257226 -2.466202 137.391083 179.087234 -11.687789 -83.325615 137.418976
31 -1.257226 -2.466202 137.391083 178.397934 -12.553930 -84.214996 137.418976
[null_rope04_connect]
30 -1.259640 -2.480268 -137.844437 179.087234 -11.687789 -83.325615 137.872513
31 -1.259640 -2.480268 -137.844437 178.397934 -12.553930 -84.214996 137.872513
[Rope3_Seg01]
30 0.000000 0.000000 0.000000 43.817413 -62.003693 -98.392693 0.000000
31 0.000000 0.000000 0.000000 49.857025 -61.636639 -105.036736 0.000000
[Rope3_Seg02]
30 139.999924 -0.000119 0.000060 -7.275815 12.997890 -7.785239 139.999924
31 139.999924 -0.000119 0.000060 -7.628652 15.623226 -4.959437 139.999924
[Rope3_Seg03]
30 139.999924 -0.000119 0.000119 -6.310175 11.250253 -7.861969 139.999924
31 139.999924 -0.000119 0.000119 -5.627054 14.649293 -4.716856 139.999924
[Rope3_Seg04]
30 139.999924 0.000119 0.000000 -4.798802 7.023710 -7.632862 139.999924
31 139.999924 0.000119 0.000000 -3.560387 9.944362 -4.953372 139.999924
[Rope3_Seg05]
30 139.999924 -0.000238 0.000060 -0.771606 7.211508 4.806029 139.999924
31 139.999924 -0.000238 0.000060 -0.144314 7.340476 5.222648 139.999924
[Rope3_Seg06]
30 139.999893 -0.000119 -0.000060 6.744070 19.872520 35.429451 139.999893
31 139.999893 -0.000119 -0.000060 4.194232 15.789401 29.224842 139.999893
[Rope3_Seg07]
30 139.999771 0.000060 -0.000119 8.055885 21.510246 35.015484 139.999771
31 139.999771 0.000060 -0.000119 5.788154 19.723146 33.142815 139.999771
[Rope3_Seg08]
30 139.999985 -0.000060 0.000000 4.835441 8.501288 11.283092 139.999985
31 139.999985 -0.000060 0.000000 2.285653 9.333980 13.709385 139.999985
[Rope3_Seg09]
30 90.185997 -0.000179 -0.000060 89.793228 -1.359877 -0.847183 90.185997
31 90.185997 -0.000179 -0.000060 89.793228 -1.359877 -0.847183 90.185997
[R_rear_hand01]
30 103.366196 -6.073594 -10.757982 -177.714203 24.565960 -73.910950 104.101845
31 103.366196 -6.073594 -10.757982 -177.714203 24.565960 -73.910950 104.101845
[R_rear_hand02]
30 100.509819 12.039542 -7.992327 -12.874829 36.868488 72.167213 101.543350
31 100.509819 12.039542 -7.992327 -12.874829 36.868488 72.167213 101.543350
[R_rear_hand03]
30 101.539970 5.215704 5.435467 71.484581 -71.816628 21.513813 101.819031
31 101.539970 5.215704 5.435467 71.484581 -71.816628 21.513813 101.819031
[Rope4_Seg01]
30 0.000010 0.000014 -0.000056 -86.884399 -13.990012 -138.892029 0.000059
31 0.000010 0.000013 -0.000053 -85.660156 -15.609443 -139.731094 0.000056
[Rope4_Seg02]
30 139.999985 0.000060 0.000119 10.205265 -19.191065 -32.739567 139.999985
31 139.999985 0.000060 0.000119 9.660844 -20.537180 -30.790112 139.999985
[Rope4_Seg03]
30 139.999924 0.000000 -0.000238 -6.621617 -28.965921 -53.623005 139.999924
31 139.999924 0.000000 -0.000238 -5.764197 -32.879227 -54.752930 139.999924
[Rope4_Seg04]
30 139.999985 0.000000 0.000119 -20.823795 -5.833693 -17.055750 139.999985
31 139.999985 0.000000 0.000119 -26.519489 -6.341559 -17.880096 139.999985
[Rope4_Seg05]
30 139.999802 -0.000060 -0.000119 -32.257233 -3.265061 -17.097496 139.999802
31 139.999802 -0.000060 -0.000119 -35.817387 -0.447211 -16.340000 139.999802
[Rope4_Seg06]
30 139.999924 0.000000 0.000060 -31.864561 5.546573 -14.207390 139.999924
31 139.999924 0.000000 0.000060 -24.155281 7.001134 -10.084025 139.999924
[Rope4_Seg07]
30 139.999802 0.000000 0.000000 -12.058726 7.104165 -4.911076 139.999802
31 139.999802 0.000000 0.000000 -9.357349 6.264829 -3.588109 139.999802
[Rope4_Seg08]
30 139.999924 0.000000 0.000119 -6.624431 4.617669 -1.936617 139.999924
31 139.999924 0.000000 0.000119 -5.694250 3.974394 -1.489297 139.999924
[Rope4_Seg09]
30 90.185791 0.000060 0.000060 -135.617828 2.228885 0.850567 90.185791
31 90.185791 0.000060 0.000060 -135.617828 2.228885 0.850567 90.185791
[L_rear_hand01]
30 101.696655 -8.392275 -7.654577 -12.874829 -36.868488 107.832764 102.329041
31 101.696655 -8.392275 -7.654577 -12.874834 -36.868500 107.832779 102.329041
[L_rear_hand02]
30 102.726799 -1.568258 5.773216 71.484581 71.816628 158.486160 102.900848
31 102.726799 -1.568258 5.773216 71.484627 71.816643 158.486176 102.900848
[L_rear_hand03]
30 104.552910 9.721220 -10.420293 -177.714203 -24.565960 -106.089035 105.519653
31 104.552910 9.721220 -10.420293 -177.714203 -24.565966 -106.089035 105.519653
